HIERARCHY
ROOT root
{
	OFFSET 0.000000 0.000000 0.000000
	CHANNELS 6 Xposition Yposition Zposition Zrotation Yrotation Xrotation
	JOINT lhip
	{
		OFFSET 0.058581 -0.082280 -0.017664
		CHANNELS 3 Zrotation Yrotation Xrotation
		JOINT lknee
		{
			OFFSET 0.043451 -0.386469 0.008037
			CHANNELS 3 Zrotation Yrotation Xrotation
			JOINT lankle
			{
				OFFSET -0.014790 -0.426874 -0.037428
				CHANNELS 3 Zrotation Yrotation Xrotation
				JOINT ltoe
				{
					OFFSET 0.041054 -0.060286 0.122042
					CHANNELS 3 Zrotation Yrotation Xrotation
					End Site
					{
						OFFSET 0.000000 0.000000 0.000000
					}
				}
			}
		}
	}
	JOINT rhip
	{
		OFFSET -0.060310 -0.090513 -0.013543
		CHANNELS 3 Zrotation Yrotation Xrotation
		JOINT rknee
		{
			OFFSET -0.043257 -0.383688 -0.004843
			CHANNELS 3 Zrotation Yrotation Xrotation
			JOINT rankle
			{
				OFFSET 0.019056 -0.420046 -0.034562
				CHANNELS 3 Zrotation Yrotation Xrotation
				JOINT rtoe
				{
					OFFSET -0.034840 -0.062106 0.130323
					CHANNELS 3 Zrotation Yrotation Xrotation
					End Site
					{
						OFFSET 0.000000 0.000000 0.000000
					}
				}
			}
		}
	}
	JOINT lowerback
	{
		OFFSET 0.004439 0.124404 -0.038385
		CHANNELS 3 Zrotation Yrotation Xrotation
		JOINT upperback
		{
			OFFSET 0.004488 0.137956 0.026820
			CHANNELS 3 Zrotation Yrotation Xrotation
			JOINT chest
			{
				OFFSET -0.002265 0.056032 0.002855
				CHANNELS 3 Zrotation Yrotation Xrotation
				JOINT lowerneck
				{
					OFFSET -0.013390 0.211636 -0.033468
					CHANNELS 3 Zrotation Yrotation Xrotation
					JOINT upperneck
					{
						OFFSET 0.010113 0.088937 0.050410
						CHANNELS 3 Zrotation Yrotation Xrotation
						End Site
						{
							OFFSET 0.000000 0.000000 0.000000
						}
					}
				}
				JOINT lclavicle
				{
					OFFSET 0.071702 0.114000 -0.018898
					CHANNELS 3 Zrotation Yrotation Xrotation
					JOINT lshoulder
					{
						OFFSET 0.122921 0.045205 -0.019046
						CHANNELS 3 Zrotation Yrotation Xrotation
						JOINT lelbow
						{
							OFFSET 0.255332 -0.015649 -0.022946
							CHANNELS 3 Zrotation Yrotation Xrotation
							JOINT lwrist
							{
								OFFSET 0.265709 0.012698 -0.007375
								CHANNELS 3 Zrotation Yrotation Xrotation
								End Site
								{
									OFFSET 0.000000 0.000000 0.000000
								}
							}
						}
					}
				}
				JOINT rclavicle
				{
					OFFSET -0.082954 0.112472 -0.023707
					CHANNELS 3 Zrotation Yrotation Xrotation
					JOINT rshoulder
					{
						OFFSET -0.113228 0.046853 -0.008472
						CHANNELS 3 Zrotation Yrotation Xrotation
						JOINT relbow
						{
							OFFSET -0.260127 -0.014369 -0.031269
							CHANNELS 3 Zrotation Yrotation Xrotation
							JOINT rwrist
							{
								OFFSET -0.269108 0.006794 -0.006027
								CHANNELS 3 Zrotation Yrotation Xrotation
								End Site
								{
									OFFSET 0.000000 0.000000 0.000000
								}
							}
						}
					}
				}
			}
		}
	}
}
MOTION
Frames: 7
Frame Time: 0.033333
1.770349 0.745136 0.988864 -85.632153 3.054088 81.570989 0.989588 0.111891 9.271737 -1.954758 -16.205696 5.905336 3.853374 8.676555 -18.367589 0.000000 -0.000000 0.000000 3.111552 -3.184036 7.867346 2.773814 2.146231 9.375827 3.238050 -5.324054 -12.878143 0.000000 -0.000000 0.000000 -1.845325 0.702827 8.603053 0.711048 -3.398315 3.105921 1.611711 -2.213465 3.901353 3.925682 -1.609528 -13.556517 4.344223 -6.912646 -6.335798 -28.713699 1.454750 -1.010895 -59.607652 -6.860455 6.605967 10.367117 -22.837464 -0.652135 -0.791121 -1.233092 -9.535088 26.502719 1.669583 -3.120196 59.689439 2.416784 11.618433 -13.447905 24.486107 -4.230896 6.005602 -0.515501 -6.679705 
1.769890 0.744956 0.987988 -86.317578 3.083427 81.554947 1.067811 0.537380 9.351757 -1.988242 -15.955265 5.829873 3.701734 8.589173 -18.293548 0.000000 -0.000000 0.000000 3.473397 -2.635328 7.004598 2.235393 2.119548 10.821509 2.830764 -4.558583 -14.453938 0.000000 -0.000000 0.000000 -1.757223 0.902815 8.746801 0.754878 -3.145029 2.788384 1.479946 -2.179758 4.304948 4.115706 -0.916492 -14.005306 3.913063 -7.275353 -6.257566 -28.290569 1.534959 -1.099397 -59.781592 -5.861102 7.336563 9.588190 -20.310803 2.353925 0.096298 -1.555123 -7.055332 26.431111 1.362782 -3.403972 59.905592 2.056258 11.699584 -13.261080 23.701916 -3.587934 4.936420 -0.492577 -6.768126 
1.771345 0.744837 0.987082 -85.942118 2.799606 82.418416 0.688994 -0.355090 8.021894 -2.396004 -15.949674 6.297151 4.594570 9.401786 -17.934328 0.000000 -0.000000 0.000000 2.935835 -2.172741 6.618725 3.050606 2.745541 9.571343 2.625193 -5.968370 -13.343433 0.000000 -0.000000 0.000000 -1.923009 1.001917 7.921306 0.776386 -3.495867 2.681033 1.247930 -2.247291 4.230259 4.090974 -1.439695 -13.423410 4.232904 -7.045707 -7.004125 -28.735618 1.565313 -0.742811 -59.044214 -5.207216 7.273556 9.003998 -17.728744 4.010772 -2.325152 0.891809 -6.806779 25.936595 1.008249 -3.391722 60.787061 0.860163 11.938549 -15.268582 21.983626 -2.696376 5.568575 -5.054975 -5.876734 
1.770335 0.744617 0.986729 -86.232615 2.865502 82.464200 0.715232 -0.030144 8.303763 -2.113325 -15.815469 5.972192 4.011133 9.084956 -18.131074 0.000000 -0.000000 0.000000 2.909687 -2.510609 6.489492 2.981853 2.918046 9.752773 2.894275 -5.575105 -13.338672 0.000000 -0.000000 0.000000 -1.964078 0.976086 7.987967 0.797431 -3.373133 2.711498 1.333477 -2.349859 4.411472 4.287546 -1.136795 -14.027496 3.914933 -7.307910 -6.638657 -28.529259 2.188672 -0.773226 -59.094423 -4.458217 7.043450 9.046173 -16.469589 4.405074 -3.131414 -1.101005 -6.152695 26.518153 0.523108 -3.189860 59.693321 1.834211 11.533152 -12.419672 22.242829 -3.414447 6.343338 -0.496813 -7.327610 
1.769979 0.744531 0.986756 -86.265251 2.917367 82.529104 0.743111 -0.063625 8.288756 -2.106915 -15.769296 5.968577 4.054273 9.087408 -18.172874 0.000000 -0.000000 0.000000 2.926217 -2.408072 6.443743 3.011638 2.780649 9.707723 2.872308 -5.443089 -13.392392 0.000000 -0.000000 0.000000 -1.927804 0.948239 8.049523 0.829809 -3.411428 2.541723 1.363209 -2.385265 4.444604 4.392603 -0.991801 -13.905153 3.834436 -7.092560 -6.623891 -28.478316 2.446836 -0.685872 -59.168677 -4.102625 6.901360 9.211317 -15.186325 4.572209 -3.210946 -1.256116 -5.925180 26.167045 0.253387 -3.121232 60.121559 1.528582 11.535717 -12.557347 22.089341 -3.226407 6.048068 -0.469614 -7.572978 
1.769629 0.744434 0.986774 -86.328647 2.919821 82.628318 0.724567 -0.097246 8.234213 -2.110284 -15.804227 5.950931 4.122819 9.200699 -18.141117 0.000000 -0.000000 0.000000 2.952139 -2.295367 6.306474 3.029924 2.859230 9.743014 2.789573 -5.559018 -13.372431 0.000000 -0.000000 0.000000 -2.012589 1.012877 8.043507 0.886077 -3.392253 2.485926 1.442771 -2.463466 4.561228 4.337502 -0.860337 -13.850230 3.831345 -6.894908 -6.820021 -28.192847 2.687346 -0.558747 -59.118194 -3.786490 6.664579 8.809037 -13.947487 4.761832 -3.591574 -1.021602 -5.882073 26.018967 -0.024458 -3.026257 60.235783 1.335394 11.478518 -12.615048 21.844047 -3.064006 6.096957 -0.515950 -7.726091 
1.768855 0.744515 0.986721 -86.409434 2.915682 82.589284 0.760581 -0.023175 8.350484 -2.152882 -15.749758 5.889074 4.266833 9.167589 -18.173900 0.000000 -0.000000 0.000000 2.914073 -2.320158 6.372038 3.119568 2.857032 9.719622 2.684038 -5.453429 -13.411102 0.000000 -0.000000 0.000000 -2.049636 1.059923 8.065593 0.864237 -3.450094 2.570546 1.448960 -2.543383 4.460462 4.254467 -0.655539 -13.453341 3.902090 -6.468695 -7.155510 -28.322061 2.317226 0.005728 -58.966332 -3.373393 6.343414 9.292375 -12.624528 4.414107 -3.846349 -1.233024 -6.097208 25.919152 -0.027952 -2.553337 60.466470 1.222909 11.263662 -12.814487 21.668538 -3.075176 6.114128 -0.618903 -8.055930 
